<svg t="1659855628041" class="icon" viewBox="0 0 1024 1024" version="1.1" xmlns="http://www.w3.org/2000/svg" p-id="3304" width="200" height="200"><path d="M581.5 346.2m-145.6 0a145.6 145.6 0 1 0 291.2 0 145.6 145.6 0 1 0-291.2 0Z" fill="#F4C708" p-id="3305"></path><path d="M727.1 917.5c-11.8 0-21.3-9.5-21.3-21.3V571c0-11.8 9.5-21.3 21.3-21.3s21.3 9.5 21.3 21.3v325.2c0 11.8-9.5 21.3-21.3 21.3z" fill="#111111" p-id="3306"></path><path d="M889.6 754.9H564.5c-11.8 0-21.3-9.5-21.3-21.3s9.5-21.3 21.3-21.3h325.2c11.8 0 21.3 9.5 21.3 21.3s-9.6 21.3-21.4 21.3zM523.9 513.1c-123.8 0-224.6-100.8-224.6-224.6S400 64 523.9 64s224.5 100.7 224.5 224.5-100.7 224.6-224.5 224.6z m0-406.4c-100.3 0-181.9 81.6-181.9 181.9s81.6 181.9 181.9 181.9 181.9-81.6 181.9-181.9-81.7-181.9-181.9-181.9z" fill="#111111" p-id="3307"></path><path d="M136.4 960c-10.9 0-20.1-8.2-21.2-19.3-1.4-14.4-2.1-28.8-2.1-42.6 0-235.9 191.9-427.8 427.8-427.8 11.8 0 21.3 9.5 21.3 21.3s-9.5 21.3-21.3 21.3c-212.3 0-385.1 172.7-385.1 385.1 0 12.4 0.6 25.3 1.9 38.4 1.2 11.7-7.4 22.2-19.1 23.3-0.8 0.3-1.5 0.3-2.2 0.3zM474 330.7h-61c-0.8 0-1.5-0.7-1.5-1.5v-125c0-0.8 0.7-1.5 1.5-1.5h61c0.8 0 1.5 0.7 1.5 1.5v125c0 0.8-0.6 1.5-1.5 1.5zM623.4 330.7h-61c-0.8 0-1.5-0.7-1.5-1.5v-125c0-0.8 0.7-1.5 1.5-1.5h61c0.8 0 1.5 0.7 1.5 1.5v125c0 0.8-0.7 1.5-1.5 1.5z" fill="#111111" p-id="3308"></path></svg>