<svg t="1659855447501" class="icon" viewBox="0 0 1024 1024" version="1.1" xmlns="http://www.w3.org/2000/svg" p-id="1806" width="200" height="200"><path d="M305.3 647.1c-26 0-45.9 23-42.2 48.8l27.8 193h520.5c42.4 0 78.4-31.2 84.5-73.2l24.3-168.6H305.3z" fill="#F4C708" p-id="1807"></path><path d="M402.6 780.1c-16.2 0-31.6-4-45.4-12-27.6-15.9-44.6-45.3-47.9-82.8-3-34.6 6.2-72.6 26-106.9 19.8-34.3 48-61.3 79.6-76 34.1-15.9 68-15.9 95.6 0 14.5 8.4 26.1 20.7 34.6 36.5 1.6 3.1 2.5 6.5 2.5 10v106.3c0 2.6-0.5 5.2-1.4 7.7-4.1 10.6-8.6 20.1-13.8 29.1-19.8 34.3-48.1 61.3-79.6 76-17 8.1-34 12.1-50.2 12.1zM465 533.3c-10 0-20.9 2.6-32.1 7.8-23.6 11-45.2 31.9-60.6 58.6-15.5 26.8-22.7 55.9-20.5 81.9 2 23.2 11.5 40.8 26.7 49.5 15.2 8.8 35.1 8.2 56.2-1.7 23.6-11 45.2-31.9 60.6-58.6 3.5-6 6.6-12.5 9.5-19.6v-96.5c-4.2-6.6-9.5-11.7-15.7-15.3-7.1-4-15.2-6.1-24.1-6.1z" fill="#111111" p-id="1808"></path><path d="M526.2 618.7c-11.8 0-21.3-9.5-21.3-21.3V113.8c0-8.6 5.2-16.4 13.2-19.7 8-3.3 17.1-1.5 23.2 4.6l39.7 39.7c57.9 57.9 137.6 85.3 218.9 75.1 11.7-1.4 22.4 6.8 23.8 18.5s-6.8 22.4-18.5 23.8c-94.4 11.8-187.1-20-254.3-87.3l-3.3-3.3v432.1c-0.1 11.8-9.6 21.4-21.4 21.4z" fill="#111111" p-id="1809"></path><path d="M811.4 931.6H212.6c-52.7 0-98-39.3-105.6-91.5L64.2 543.5c-1.7-11.7 6.4-22.5 18.1-24.2 11.6-1.7 22.5 6.4 24.2 18.1L149.2 834c4.5 31.3 31.7 54.9 63.3 54.9h598.8c31.6 0 58.8-23.6 63.3-54.9l42.8-296.6c1.7-11.6 12.5-19.7 24.2-18.1 11.7 1.7 19.7 12.5 18.1 24.2L917 840.1c-7.5 52.1-52.9 91.5-105.6 91.5z" fill="#111111" p-id="1810"></path></svg>