<svg t="1659758779517" class="icon" viewBox="0 0 1024 1024" version="1.1" xmlns="http://www.w3.org/2000/svg" p-id="2746" width="200" height="200"><path d="M600.8 622.2m-273.8 0a273.8 273.8 0 1 0 547.6 0 273.8 273.8 0 1 0-547.6 0Z" fill="#F4C708" p-id="2747"></path><path d="M512 960C265 960 64 759 64 512S265 64 512 64s448 201 448 448-201 448-448 448z m0-853.3c-223.5 0-405.3 181.8-405.3 405.3S288.5 917.3 512 917.3 917.3 735.5 917.3 512 735.5 106.7 512 106.7z" fill="#111111" p-id="2748"></path><path d="M512 705.7c-5.5 0-10.9-2.1-15.1-6.3L336.5 539C311 513.6 297 479.8 297 443.8s14-69.9 39.5-95.3C385.9 299 460 315.6 512 357.8c52-42.2 126.1-58.7 175.5-9.3 52.5 52.6 52.5 138.1 0 190.6L527.1 699.5c-4.2 4.1-9.6 6.2-15.1 6.2zM410.9 361.1c-16.6 0-32.1 5.3-44.3 17.5-17.4 17.4-27 40.5-27 65.1s9.6 47.7 27 65.1L512 654.2l145.4-145.4c35.9-35.9 35.9-94.4 0-130.3-33.6-33.6-92.6-14.7-130.3 22.9-8.3 8.3-21.8 8.3-30.2 0-24-23.9-56.7-40.3-86-40.3z" fill="#111111" p-id="2749"></path></svg>