<svg t="1659758560024" class="icon" viewBox="0 0 1024 1024" version="1.1" xmlns="http://www.w3.org/2000/svg" p-id="2307" width="200" height="200"><path d="M431.9 616.1l42.3 85.8c8 16.3 31.3 16.3 39.3 0l42.4-85.8c9.6-19.4 28.1-32.9 49.5-36l94.7-13.8c18-2.6 25.2-24.7 12.1-37.4l-68.5-66.8c-7.7-7.5-13.3-16.6-16.5-26.5l-7.3 3.8a75.762 75.762 0 0 1-70.5 0l-97.6-51.3c-18.5-9.7-40.2 6-36.6 26.6l18.6 108.7c4.2 24.6-3.9 49.7-21.8 67.1l-1.1 1.1c8.8 6.3 16.1 14.6 21 24.5z" fill="#F4C708" p-id="2308"></path><path d="M480.5 755.8c-17.7 0-33.5-9.8-41.3-25.7l-48.8-98.9c-8-16.2-23.5-27.4-41.4-30.1l-109.1-15.9c-17.5-2.5-31.7-14.5-37.2-31.4-5.5-16.8-1-34.9 11.6-47.3l79-77c13-12.6 18.9-30.8 15.8-48.6l-18.6-108.7c-3-17.4 4-34.7 18.3-45.1 14.3-10.4 32.9-11.7 48.5-3.5l97.6 51.3c16 8.4 35.1 8.4 51.1 0l97.6-51.3c15.7-8.2 34.3-6.9 48.6 3.5 14.3 10.4 21.3 27.7 18.3 45.1l-18.6 108.7c-3.1 17.8 2.8 36 15.8 48.6l79 77c12.7 12.3 17.1 30.4 11.6 47.3-5.5 16.8-19.7 28.8-37.2 31.4l-109.1 16c-17.9 2.6-33.4 13.9-41.4 30.1l-48.8 98.9c-7.8 15.8-23.6 25.6-41.3 25.6zM335.9 260.2c-0.9 0-1.7 0.3-2.6 0.9-1.5 1.1-2.1 2.5-1.8 4.3l18.6 108.7c5.4 31.4-5 63.3-27.8 85.5l-78.9 76.9c-1.3 1.3-1.7 2.8-1.1 4.5 0.6 1.7 1.8 2.7 3.6 3L355 559.9c31.5 4.6 58.7 24.4 72.7 52.8l48.8 98.9c1.6 3.3 6.3 3.3 7.9 0l48.8-98.9c14-28.5 41.2-48.2 72.7-52.8L715 544c1.8-0.3 3-1.3 3.6-3s0.2-3.3-1.1-4.5l-79-77c-22.8-22.2-33.1-54.1-27.8-85.5l18.6-108.7c0.3-1.8-0.3-3.3-1.8-4.3-1.5-1.1-3.1-1.2-4.7-0.3L525.2 312c-28.1 14.8-61.8 14.8-89.9 0L338 260.7c-0.7-0.3-1.4-0.5-2.1-0.5z m179.9 33.4h0.2-0.2zM480.5 206.7c-11.5 0-20.8-9.3-20.8-20.8v-101c0-11.5 9.3-20.8 20.8-20.8s20.8 9.3 20.8 20.8v101c0.1 11.5-9.3 20.8-20.8 20.8zM746.8 403.5c-8.9 0-17.2-5.8-19.9-14.7-3.4-11 2.8-22.7 13.8-26l154.7-47.4c11-3.4 22.6 2.8 26 13.8 3.4 11-2.8 22.7-13.8 26l-154.7 47.4c-2.1 0.6-4.1 0.9-6.1 0.9zM762.6 859.2c-6 0-11.9-2.5-16-7.5L620.3 700.1c-7.4-8.9-6.2-22 2.7-29.4 8.9-7.3 22-6.2 29.4 2.7L778.6 825c7.4 8.9 6.2 22-2.7 29.4-3.9 3.2-8.6 4.8-13.3 4.8z" fill="#111111" p-id="2309"></path><path d="M122.5 960c-4.7 0-9.5-1.6-13.4-4.9-8.8-7.4-9.9-20.6-2.5-29.4l277.8-328.3c7.4-8.8 20.6-9.9 29.4-2.5 8.8 7.4 9.9 20.6 2.5 29.4L138.4 952.6c-4.1 4.9-10 7.4-15.9 7.4z" fill="#111111" p-id="2310"></path></svg>