<svg t="1659855335461" class="icon" viewBox="0 0 1024 1024" version="1.1" xmlns="http://www.w3.org/2000/svg" p-id="1513" width="200" height="200"><path d="M245.3 845.3v-75.6c-11.2-6-23.8-9.7-37.3-9.7-44 0-80 36-80 80v75.6c11.2 6 23.8 9.7 37.3 9.7 44 0 80-36 80-80zM938.7 845.3v-75.6c-11.2-6-23.8-9.7-37.3-9.7-44 0-80 36-80 80v75.6c11.2 6 23.8 9.7 37.3 9.7 44 0 80-36 80-80z" fill="#F4C708" p-id="1514"></path><path d="M938.7 804.4c-11.8 0-21.3-9.5-21.3-21.3V525.3C917.3 301.8 735.5 120 512 120S106.7 301.8 106.7 525.3v257.8c0 11.8-9.5 21.3-21.3 21.3S64 794.9 64 783.1V525.3c0-247 201-448 448-448s448 201 448 448v257.8c0 11.8-9.5 21.3-21.3 21.3z" fill="#111111" p-id="1515"></path><path d="M165.3 946.7C109.5 946.7 64 901.2 64 845.3V712c0-55.9 45.5-101.3 101.3-101.3S266.7 656.1 266.7 712v133.3c0 55.9-45.5 101.4-101.4 101.4z m0-293.4c-32.4 0-58.7 26.3-58.7 58.7v133.3c0 32.4 26.3 58.7 58.7 58.7s58.7-26.3 58.7-58.7V712c0-32.4-26.3-58.7-58.7-58.7zM858.7 946.7c-55.9 0-101.3-45.5-101.3-101.3V712c0-55.9 45.5-101.3 101.3-101.3S960 656.1 960 712v133.3c0 55.9-45.5 101.4-101.3 101.4z m0-293.4c-32.4 0-58.7 26.3-58.7 58.7v133.3c0 32.4 26.3 58.7 58.7 58.7 32.4 0 58.7-26.3 58.7-58.7V712c-0.1-32.4-26.4-58.7-58.7-58.7z" fill="#111111" p-id="1516"></path></svg>