<svg t="1659758549989" class="icon" viewBox="0 0 1024 1024" version="1.1" xmlns="http://www.w3.org/2000/svg" p-id="2159" width="200" height="200"><path d="M477.3 331.6v228.9c10.5 3.1 21.5 4.8 32.9 4.8h3.5c65 0 118.3-53.2 118.3-118.3V218.1c-10.5-3.1-21.5-4.8-32.9-4.8h-3.5c-65 0-118.3 53.3-118.3 118.3z" fill="#F4C708" p-id="2160"></path><path d="M513.7 586.7h-3.5c-77 0-139.6-62.6-139.6-139.6V203.6c0-77 62.6-139.6 139.6-139.6h3.5c77 0 139.6 62.6 139.6 139.6v243.5c0 76.9-62.6 139.6-139.6 139.6z m-3.4-480c-53.5 0-96.9 43.5-96.9 96.9v243.5c0 53.5 43.5 96.9 96.9 96.9h3.5c53.5 0 96.9-43.5 96.9-96.9V203.6c0-53.5-43.5-96.9-96.9-96.9h-3.5z" fill="#111111" p-id="2161"></path><path d="M515.5 693.3h-6.9c-142.2 0-257.9-115.7-257.9-257.9 0-11.8 9.5-21.3 21.3-21.3s21.3 9.5 21.3 21.3c0 118.7 96.5 215.2 215.2 215.2h6.9c118.7 0 215.2-96.5 215.2-215.2 0-11.8 9.5-21.3 21.3-21.3s21.3 9.5 21.3 21.3c0.1 142.2-115.6 257.9-257.7 257.9z" fill="#111111" p-id="2162"></path><path d="M512 960c-11.8 0-21.3-9.5-21.3-21.3V672c0-11.8 9.5-21.3 21.3-21.3s21.3 9.5 21.3 21.3v266.7c0 11.8-9.5 21.3-21.3 21.3z" fill="#111111" p-id="2163"></path><path d="M685.3 960H338.7c-11.8 0-21.3-9.5-21.3-21.3s9.5-21.3 21.3-21.3h346.7c11.8 0 21.3 9.5 21.3 21.3s-9.6 21.3-21.4 21.3z" fill="#111111" p-id="2164"></path></svg>