<svg t="1659855677683" class="icon" viewBox="0 0 1024 1024" version="1.1" xmlns="http://www.w3.org/2000/svg" p-id="3597" width="200" height="200"><path d="M657.3 798.8c4.8-8.3 8.7-16.8 12-25.4v-76.8c-37.2 1.3-78.9 29.2-105.1 74.6-20 34.6-26.2 71.6-20.6 101.9 39.3 3.2 85.5-25.4 113.7-74.3z" fill="#F4C708" p-id="3598"></path><path d="M657.9 171H84.7c-11.4 0-20.7-9.2-20.7-20.7 0-11.4 9.2-20.7 20.7-20.7H658c11.4 0 20.7 9.2 20.7 20.7-0.1 11.4-9.3 20.7-20.8 20.7zM510.8 389.6H84.7c-11.4 0-20.7-9.2-20.7-20.7 0-11.4 9.2-20.7 20.7-20.7h426.1c11.4 0 20.7 9.2 20.7 20.7-0.1 11.5-9.3 20.7-20.7 20.7zM461.7 608.3h-377c-11.4 0-20.7-9.2-20.7-20.7 0-11.4 9.2-20.7 20.7-20.7h377c11.4 0 20.7 9.2 20.7 20.7 0 11.4-9.3 20.7-20.7 20.7zM412.6 826.9h-328c-11.4 0-20.7-9.2-20.7-20.7s9.2-20.7 20.7-20.7h328c11.4 0 20.7 9.2 20.7 20.7s-9.2 20.7-20.7 20.7zM552.2 894.4c-15.6 0-30.7-3.8-44.4-11.7-26.7-15.4-43.2-43.9-46.4-80.2-2.9-33.6 6-70.4 25.2-103.6 41.6-72.2 116.2-104.5 169.8-73.6 14 8.1 25.3 20 33.5 35.3 1.6 3 2.4 6.3 2.4 9.7v103c0 2.5-0.5 5.1-1.4 7.4-4 10.3-8.3 19.5-13.4 28.2-31 53.8-80.2 85.5-125.3 85.5z m60.1-239.3c-30.4 0-67.2 25-89.9 64.4-15 25.9-22 54.1-19.8 79.3 2 22.5 11.1 39.5 25.8 48 32.3 18.6 84.2-8.1 113.3-58.4 3.4-5.9 6.4-12.1 9.2-19V676c-4.1-6.4-9.2-11.4-15.2-14.9-7.1-4-15-6-23.4-6z" fill="#111111" p-id="3599"></path><path d="M671.6 737.8c-11.4 0-20.7-9.2-20.7-20.7V248.6c0-8.4 5-15.9 12.8-19.1 7.8-3.2 16.6-1.4 22.5 4.5l38.5 38.5c56.1 56.1 133.4 82.6 212.1 72.8 11.4-1.4 21.7 6.6 23.1 17.9 1.4 11.3-6.6 21.7-17.9 23.1-91.4 11.4-181.3-19.4-246.5-84.6l-3.2-3.2v418.7c-0.1 11.4-9.3 20.6-20.7 20.6z" fill="#111111" p-id="3600"></path></svg>