<svg t="1659855726102" class="icon" viewBox="0 0 1024 1024" version="1.1" xmlns="http://www.w3.org/2000/svg" p-id="3743" width="200" height="200"><path d="M637.9 634m-283.3 0a283.3 283.3 0 1 0 566.6 0 283.3 283.3 0 1 0-566.6 0Z" fill="#F4C708" p-id="3744"></path><path d="M537.2 960c-247 0-448-201-448-448s201-448 448-448 448 201 448 448-201 448-448 448z m0-853.3c-223.5 0-405.3 181.8-405.3 405.3s181.8 405.3 405.3 405.3S942.5 735.5 942.5 512 760.7 106.7 537.2 106.7z" fill="#111111" p-id="3745"></path><path d="M562.4 725.6c-6.4 0-12.9-1.4-19.1-4.1-17-7.6-27.5-23.8-27.5-42.4V340c0-18.6 10.6-34.9 27.5-42.4 17-7.6 36.1-4.5 49.9 7.9L781.7 475c9.8 8.8 15.4 21.4 15.4 34.5 0 13.1-5.6 25.7-15.4 34.5L593.3 713.5c-8.8 8-19.7 12.1-30.9 12.1z m0-389.4c-0.5 0-1 0.1-1.6 0.4-2.2 1-2.2 2.8-2.2 3.4v339c0 0.6 0 2.4 2.2 3.4s3.6-0.2 4-0.6l188.4-169.5c1-0.9 1.3-2 1.3-2.8 0-0.8-0.2-1.9-1.3-2.8L564.8 337.2c-0.4-0.3-1.2-1-2.4-1z m205 192h0.2-0.2zM386.6 759.2c-11.8 0-21.3-9.5-21.3-21.3V286.1c0-11.8 9.5-21.3 21.3-21.3s21.3 9.5 21.3 21.3v451.8c0 11.8-9.5 21.3-21.3 21.3z" fill="#111111" p-id="3746"></path></svg>