<svg t="1659855839594" class="icon" viewBox="0 0 1024 1024" version="1.1" xmlns="http://www.w3.org/2000/svg" p-id="4477" width="200" height="200"><path d="M716.8 755.8H278.3c-1.3 0-2.4-1.1-2.4-2.4V417.2c0-1.3 1.1-2.4 2.4-2.4h438.6c1.3 0 2.4 1.1 2.4 2.4v336.2c-0.1 1.3-1.1 2.4-2.5 2.4z" fill="#F4C708" p-id="4478"></path><path d="M646.1 777.1H158.5c-52.1 0-94.5-42.4-94.5-94.5V341.3c0-52.1 42.4-94.5 94.5-94.5h487.6c52.1 0 94.5 42.4 94.5 94.5v341.3c0 52.2-42.4 94.5-94.5 94.5zM158.5 289.5c-28.6 0-51.8 23.3-51.8 51.8v341.3c0 28.6 23.2 51.8 51.8 51.8h487.6c28.6 0 51.8-23.3 51.8-51.8V341.3c0-28.6-23.3-51.8-51.8-51.8H158.5z" fill="#111111" p-id="4479"></path><path d="M914.3 707.5c-8.8 0-17.5-2.5-25.1-7.5L707.5 580.5c-6-3.9-9.6-10.6-9.6-17.8V461.4c0-7.2 3.6-13.9 9.6-17.8L889.1 324c14.1-9.3 32-10 46.8-2.1 14.8 8 24 23.4 24 40.2v299.6c0 16.8-9.2 32.3-24 40.3-6.7 3.7-14.2 5.5-21.6 5.5zM740.6 551.1l172 113.2c0.4 0.2 1.4 1 3.1 0.1 1.6-0.9 1.6-2.2 1.6-2.7V362.2c0-0.5 0-1.8-1.6-2.7-1.7-0.9-2.8-0.1-3.1 0.1l-172 113.2v78.3z" fill="#111111" p-id="4480"></path><path d="M304.8 487.6m-73.1 0a73.1 73.1 0 1 0 146.2 0 73.1 73.1 0 1 0-146.2 0Z" fill="#111111" p-id="4481"></path></svg>