<svg t="1659758249131" class="icon" viewBox="0 0 1024 1024" version="1.1" xmlns="http://www.w3.org/2000/svg" p-id="1573" width="200" height="200"><path d="M603.4 599.2m-304.6 0a304.6 304.6 0 1 0 609.2 0 304.6 304.6 0 1 0-609.2 0Z" fill="#F4C708" p-id="1574"></path><path d="M512 960C265 960 64 759 64 512S265 64 512 64s448 201 448 448-201 448-448 448z m0-853.3c-223.5 0-405.3 181.8-405.3 405.3S288.5 917.3 512 917.3 917.3 735.5 917.3 512 735.5 106.7 512 106.7z" fill="#111111" p-id="1575"></path><path d="M512 699.3c-103.3 0-187.3-84-187.3-187.3 0-103.3 84-187.3 187.3-187.3 103.3 0 187.3 84 187.3 187.3 0 103.3-84 187.3-187.3 187.3z m0-331.9c-79.7 0-144.6 64.9-144.6 144.6S432.3 656.6 512 656.6 656.6 591.7 656.6 512 591.7 367.4 512 367.4zM248.5 342.8c-3.9 0-7.9-1.1-11.4-3.3-9.9-6.3-12.9-19.5-6.6-29.5 58-91.4 157.1-149.2 265.2-154.4 11.4-0.6 21.8 8.5 22.4 20.3 0.6 11.8-8.5 21.8-20.3 22.4-94.2 4.6-180.6 54.9-231.2 134.6-4.1 6.4-11 9.9-18.1 9.9z" fill="#111111" p-id="1576"></path></svg>