<svg t="1659855422420" class="icon" viewBox="0 0 1024 1024" version="1.1" xmlns="http://www.w3.org/2000/svg" p-id="1659" width="200" height="200"><path d="M430 415.1c-41.5 0-75.2 33.7-75.2 75.2v447.4h447.4c41.5 0 75.2-33.7 75.2-75.2V415.1H430z" fill="#F4C708" p-id="1660"></path><path d="M792.8 960H171.9c-59 0-107.1-48-107.1-107.1V232.1c0-59 48-107.1 107.1-107.1h449.6c12.4 0 22.4 10 22.4 22.4 0 12.4-10 22.4-22.4 22.4H171.9c-34.3 0-62.3 27.9-62.3 62.3v620.8c0 34.3 27.9 62.3 62.3 62.3h620.8c34.3 0 62.3-27.9 62.3-62.3V496.4c0-12.4 10-22.4 22.4-22.4s22.4 10 22.4 22.4v356.5c0 59.1-48 107.1-107 107.1z" fill="#111111" p-id="1661"></path><path d="M441.2 676.4c-1.4 0-2.7-0.1-4.1-0.4-12.2-2.3-20.2-13.9-18-26.1 36.2-196 174.6-361.1 361.3-430.9l17.5-6.5c11.6-4.3 24.5 1.6 28.8 13.1 4.3 11.6-1.6 24.5-13.1 28.8l-17.5 6.5c-172 64.3-299.6 216.5-332.9 397.1-2 10.9-11.4 18.4-22 18.4z" fill="#111111" p-id="1662"></path><path d="M836.3 404.4c-3.4 0-6.9-0.8-10.2-2.5-11-5.7-15.3-19.2-9.7-30.2l90.1-175.3-175.3-90.1c-11-5.7-15.3-19.2-9.7-30.2 5.7-11 19.1-15.3 30.2-9.7L947 166.9c11 5.7 15.3 19.2 9.7 30.2L856.3 392.2c-4 7.7-11.8 12.2-20 12.2z" fill="#111111" p-id="1663"></path></svg>