<svg t="1659855532379" class="icon" viewBox="0 0 1024 1024" version="1.1" xmlns="http://www.w3.org/2000/svg" p-id="2099" width="200" height="200"><path d="M597.3 613.9m-265.5 0a265.5 265.5 0 1 0 531 0 265.5 265.5 0 1 0-531 0Z" fill="#F4C708" p-id="2100"></path><path d="M495.4 943.4C257.5 943.4 64 749.9 64 512S257.5 80.6 495.4 80.6 926.8 274.1 926.8 512 733.3 943.4 495.4 943.4z m0-820.1C281 123.3 106.6 297.7 106.6 512S281 900.7 495.4 900.7 884.2 726.3 884.2 512 709.8 123.3 495.4 123.3z" fill="#111111" p-id="2101"></path><path d="M495.4 424.8c-51.7 0-93.7-42-93.7-93.7s42-93.7 93.7-93.7 93.7 42 93.7 93.7-42 93.7-93.7 93.7z m0-144.7c-28.1 0-51 22.9-51 51s22.9 51 51 51 51-22.9 51-51c0.1-28.2-22.8-51-51-51zM495.4 786.6c-51.7 0-93.7-42-93.7-93.7s42-93.7 93.7-93.7 93.7 42 93.7 93.7-42 93.7-93.7 93.7z m0-144.7c-28.1 0-51 22.9-51 51s22.9 51 51 51 51-22.9 51-51c0.1-28.1-22.8-51-51-51zM314.5 605.7c-51.7 0-93.7-42-93.7-93.7s42-93.7 93.7-93.7 93.7 42 93.7 93.7-42 93.7-93.7 93.7z m0-144.7c-28.1 0-51 22.9-51 51s22.9 51 51 51 51-22.9 51-51-22.9-51-51-51zM676.3 605.7c-51.7 0-93.7-42-93.7-93.7s42-93.7 93.7-93.7 93.7 42 93.7 93.7-42 93.7-93.7 93.7z m0-144.7c-28.1 0-51 22.9-51 51s22.9 51 51 51 51-22.9 51-51c0.1-28.1-22.8-51-51-51z" fill="#111111" p-id="2102"></path><path d="M938.7 943.4H480.4c-11.8 0-21.3-9.5-21.3-21.3s9.5-21.3 21.3-21.3h458.3c11.8 0 21.3 9.5 21.3 21.3s-9.5 21.3-21.3 21.3z" fill="#111111" p-id="2103"></path></svg>