<svg t="1659855581315" class="icon" viewBox="0 0 1024 1024" version="1.1" xmlns="http://www.w3.org/2000/svg" p-id="3158" width="200" height="200"><path d="M936.3 874H339.6c-1.3 0-2.3-1-2.3-2.3v-412c0-1.3 1-2.3 2.3-2.3h596.7c1.3 0 2.3 1 2.3 2.3v412c0.1 1.3-1 2.3-2.3 2.3z" fill="#F4C708" p-id="3159"></path><path d="M861.1 895.4H162.9c-54.5 0-98.9-44.4-98.9-98.9v-569c0-54.5 44.4-98.9 98.9-98.9h698.2c54.5 0 98.9 44.4 98.9 98.9v568.9c0 54.6-44.4 99-98.9 99zM162.9 171.3c-31 0-56.2 25.2-56.2 56.2v568.9c0 31 25.2 56.3 56.2 56.3h698.2c31 0 56.3-25.2 56.3-56.3V227.5c0-31-25.2-56.2-56.3-56.2H162.9z" fill="#111111" p-id="3160"></path><path d="M473.2 638.6c-7.8 0-15.6-1.9-22.6-5.8-15.1-8.3-24.5-24.1-24.5-41.4V430c0-17.3 9.4-33.1 24.6-41.4 15.1-8.3 33.6-7.6 48.1 1.7L624.6 471c13.6 8.7 21.7 23.6 21.7 39.8 0 16.2-8.1 31-21.7 39.7l-125.9 80.7c-7.8 4.9-16.6 7.4-25.5 7.4z m0-213.2c-0.7 0-1.5 0.2-2.2 0.6-1.6 0.9-2.4 2.2-2.4 4v161.4c0 1.8 0.8 3.1 2.4 4 1.5 0.9 3.1 0.8 4.6-0.1l125.9-80.7c1.7-1.1 2.1-2.7 2.1-3.8 0-1.1-0.4-2.7-2.1-3.8l-125.9-80.7c-0.7-0.6-1.6-0.9-2.4-0.9zM938.7 326.5H85.3c-11.8 0-21.3-9.5-21.3-21.3s9.5-21.3 21.3-21.3h853.3c11.8 0 21.3 9.5 21.3 21.3s-9.4 21.3-21.2 21.3zM938.7 740.2H85.3c-11.8 0-21.3-9.5-21.3-21.3s9.5-21.3 21.3-21.3h853.3c11.8 0 21.3 9.5 21.3 21.3 0.1 11.7-9.4 21.3-21.2 21.3z" fill="#111111" p-id="3161"></path></svg>