<svg t="1659855661357" class="icon" viewBox="0 0 1024 1024" version="1.1" xmlns="http://www.w3.org/2000/svg" p-id="3451" width="200" height="200"><path d="M217.5 569h600.9c36.2 0 52.1 45.5 23.9 68.1L526 890.2c-14.6 11.6-35.4 11.1-49.3-1.3L192 635.9c-26.3-23.4-9.7-66.9 25.5-66.9z" fill="#F4C708" p-id="3452"></path><path d="M113.8 618.7c-11.8 0-21.3-9.5-21.3-21.3V426.7c0-11.8 9.5-21.3 21.3-21.3s21.3 9.5 21.3 21.3v170.7c0 11.7-9.5 21.3-21.3 21.3zM910.2 615.8c-11.8 0-21.3-9.5-21.3-21.3V423.8c0-11.8 9.5-21.3 21.3-21.3s21.3 9.5 21.3 21.3v170.7c0 11.8-9.5 21.3-21.3 21.3zM312.9 789.3c-11.8 0-21.3-9.5-21.3-21.3V256c0-11.8 9.5-21.3 21.3-21.3s21.3 9.5 21.3 21.3v512c0 11.8-9.5 21.3-21.3 21.3zM711.1 789.3c-11.8 0-21.3-9.5-21.3-21.3V256c0-11.8 9.5-21.3 21.3-21.3s21.3 9.5 21.3 21.3v512c0 11.8-9.5 21.3-21.3 21.3zM512 903.1c-11.8 0-21.3-9.5-21.3-21.3V142.2c0-11.8 9.5-21.3 21.3-21.3s21.3 9.5 21.3 21.3v739.5c0 11.9-9.5 21.4-21.3 21.4z" fill="#111111" p-id="3453"></path><path d="M938.7 533.3H85.3c-11.8 0-21.3-9.5-21.3-21.3s9.5-21.3 21.3-21.3h853.3c11.8 0 21.3 9.5 21.3 21.3 0.1 11.8-9.4 21.3-21.2 21.3z" fill="#111111" p-id="3454"></path></svg>